<svg width="48" height="48" viewBox="0 0 48 48" fill="none" xmlns="http://www.w3.org/2000/svg">
<g clip-path="url(#clip0_343_7757)">
<path d="M27.1781 13.483C27.9051 11.7278 27.0716 9.71551 25.3164 8.98846C23.5611 8.26142 21.5488 9.09493 20.8218 10.8502C20.0948 12.6054 20.9283 14.6177 22.6835 15.3448C24.4388 16.0718 26.451 15.2383 27.1781 13.483Z" fill="#2A3647"/>
<path d="M35.5128 13.3533C35.2946 13.4733 35.08 13.5897 34.8618 13.706C34.7455 13.7679 34.6328 13.826 34.5164 13.8842C34.4 13.9424 34.2837 14.0042 34.1673 14.0588C34.0364 14.1242 33.9018 14.186 33.7709 14.2479C33.6728 14.2951 33.5709 14.3424 33.4728 14.3897C33.3309 14.4551 33.1928 14.5169 33.0509 14.5788C32.96 14.6188 32.8691 14.6588 32.7782 14.6988C32.6328 14.7606 32.4873 14.8224 32.3418 14.8806C32.2546 14.9169 32.1673 14.9497 32.0837 14.986C31.9346 15.0442 31.7891 15.1024 31.64 15.1569C31.5564 15.1897 31.4728 15.2188 31.3891 15.2515C31.24 15.306 31.0909 15.3569 30.9418 15.4079C30.8582 15.4369 30.7746 15.4624 30.6946 15.4915C30.5455 15.5388 30.3964 15.5897 30.2473 15.6333C30.1637 15.6588 30.08 15.6842 30 15.706C29.8509 15.7497 29.7018 15.7933 29.5528 15.8333C29.4691 15.8551 29.3891 15.8769 29.3055 15.8988C29.1564 15.9388 29.0073 15.9751 28.8582 16.0115C28.7746 16.0297 28.6909 16.0479 28.6109 16.0697C28.4618 16.1024 28.3128 16.1351 28.1637 16.1679C28.08 16.186 28 16.2006 27.9164 16.2151C27.7673 16.2442 27.6182 16.2733 27.4691 16.2988C27.3891 16.3133 27.3055 16.3242 27.2255 16.3388C27.0728 16.3642 26.9237 16.386 26.7709 16.4079C26.6946 16.4188 26.6182 16.426 26.5382 16.4369C26.3818 16.4551 26.2291 16.4769 26.0728 16.4915C26.0037 16.4988 25.9309 16.5024 25.8618 16.5097C25.7018 16.5242 25.5382 16.5388 25.3782 16.5497C25.3273 16.5497 25.28 16.5533 25.2291 16.5569C24.4146 16.6079 23.5964 16.6079 22.7818 16.5569C22.7309 16.5569 22.6837 16.5533 22.6328 16.5497C22.4728 16.5388 22.3091 16.5242 22.1491 16.5097C22.08 16.5024 22.0073 16.4988 21.9382 16.4915C21.7855 16.4769 21.6291 16.4551 21.4764 16.4369C21.4 16.426 21.32 16.4188 21.2437 16.4079C21.0946 16.386 20.9418 16.3642 20.7928 16.3388C20.7128 16.3242 20.6291 16.3133 20.5491 16.2988C20.4 16.2733 20.2509 16.2442 20.1018 16.2151C20.0182 16.2006 19.9346 16.1824 19.8509 16.1679C19.7018 16.1388 19.5528 16.106 19.4037 16.0697C19.32 16.0515 19.2364 16.0333 19.1564 16.0115C19.0073 15.9751 18.8582 15.9388 18.7091 15.8988C18.6255 15.8769 18.5418 15.8551 18.4618 15.8333C18.3128 15.7933 18.1637 15.7497 18.0146 15.706C17.9309 15.6806 17.8473 15.6588 17.7673 15.6333C17.6182 15.586 17.4691 15.5388 17.32 15.4915C17.2364 15.4624 17.1528 15.4369 17.0691 15.4079C16.92 15.3569 16.7709 15.306 16.6218 15.2515C16.5382 15.2224 16.4546 15.1897 16.3673 15.1569C16.2182 15.1024 16.0728 15.0442 15.9237 14.986C15.8364 14.9533 15.7528 14.9169 15.6655 14.8806C15.52 14.8224 15.3746 14.7606 15.2291 14.6988C15.1382 14.6588 15.0473 14.6188 14.9564 14.5788C14.8146 14.5169 14.6764 14.4551 14.5346 14.3897C14.4364 14.3424 14.3346 14.2951 14.2364 14.2479C14.1055 14.186 13.9709 14.1206 13.84 14.0551C13.7273 13.9969 13.6109 13.9388 13.4946 13.8806C13.3782 13.8224 13.2618 13.7606 13.1455 13.7024C12.9273 13.5897 12.7128 13.4733 12.4946 13.3497C11.7928 12.9569 10.9055 13.2079 10.5164 13.9097C10.1237 14.6115 10.3782 15.4988 11.0764 15.8879C11.2873 16.0042 11.4982 16.1169 11.7091 16.2297C11.7418 16.2479 11.7709 16.2624 11.8037 16.2806C11.9128 16.3388 12.0218 16.3933 12.1309 16.4479C12.2837 16.5279 12.44 16.6042 12.5928 16.6806C12.7018 16.7351 12.8109 16.786 12.92 16.8369C13.0728 16.9097 13.2291 16.9824 13.3818 17.0551C13.4909 17.106 13.6 17.1533 13.7128 17.2006C13.8655 17.2697 14.0182 17.3351 14.1709 17.4006C14.2837 17.4479 14.3928 17.4915 14.5055 17.5388C14.6582 17.6006 14.8073 17.6624 14.96 17.7206C15.0728 17.7642 15.1891 17.8079 15.3018 17.8515C15.4509 17.906 15.6 17.9606 15.7491 18.0151C15.8655 18.0551 15.9818 18.0951 16.0982 18.1351C16.2437 18.186 16.3891 18.2333 16.5346 18.2806C16.6546 18.3206 16.7746 18.3569 16.8946 18.3933C17.0364 18.4369 17.1782 18.4769 17.32 18.5206C17.4437 18.5569 17.5637 18.5897 17.6873 18.6224C17.8255 18.6588 17.9673 18.6951 18.1055 18.7315C18.2291 18.7642 18.3564 18.7933 18.48 18.826C18.6146 18.8588 18.7528 18.8879 18.8873 18.9169C19.0146 18.946 19.1455 18.9751 19.2728 19.0006C19.4037 19.026 19.5382 19.0515 19.6691 19.0769C19.7273 19.0879 19.7891 19.0988 19.8473 19.1097L20.3709 24.6079V26.2733L16.1128 38.2806C15.7673 39.2551 16.2764 40.3242 17.2509 40.6697C17.4582 40.7424 17.6691 40.7788 17.8764 40.7788C18.6473 40.7788 19.3673 40.2988 19.64 39.5315L23.4691 28.7242H24.5382L28.3673 39.5315C28.64 40.2988 29.36 40.7788 30.1309 40.7788C30.3382 40.7788 30.5491 40.7424 30.7564 40.6697C31.7309 40.3242 32.24 39.2551 31.8946 38.2806L27.64 26.2733V24.6079L28.1637 19.1097C28.2255 19.0988 28.2837 19.0879 28.3455 19.0769C28.4764 19.0515 28.6073 19.0297 28.7382 19.0006C28.8691 18.9751 29 18.946 29.1309 18.9169C29.2655 18.8879 29.4 18.8588 29.5346 18.826C29.6618 18.7969 29.7891 18.7642 29.9164 18.7315C30.0546 18.6951 30.1928 18.6624 30.3309 18.6224C30.4546 18.5897 30.5782 18.5533 30.7018 18.5169C30.8437 18.4769 30.9855 18.4333 31.1273 18.3933C31.2473 18.3569 31.3673 18.3169 31.4909 18.2806C31.6364 18.2333 31.7782 18.186 31.9237 18.1388C32.04 18.0988 32.16 18.0588 32.2764 18.0151C32.4255 17.9642 32.5709 17.9097 32.72 17.8551C32.8364 17.8115 32.9491 17.7679 33.0655 17.7242C33.2146 17.666 33.3673 17.6042 33.5164 17.5424C33.6291 17.4951 33.7382 17.4515 33.8509 17.4042C34.0037 17.3388 34.1564 17.2733 34.3128 17.2042C34.4218 17.1569 34.5309 17.106 34.64 17.0588C34.7964 16.9897 34.9491 16.9133 35.1055 16.8406C35.2146 16.7897 35.3237 16.7388 35.4291 16.6842C35.5855 16.6079 35.7382 16.5279 35.8946 16.4479C36.0037 16.3933 36.1128 16.3388 36.2182 16.2806C36.2509 16.2624 36.28 16.2479 36.3128 16.2333C36.5237 16.1206 36.7346 16.0079 36.9455 15.8915C37.6473 15.4988 37.8982 14.6151 37.5055 13.9133C37.1128 13.2115 36.2291 12.9606 35.5273 13.3533H35.5128Z" fill="#2A3647"/>
<path d="M24 0.727539C11.1455 0.727539 0.727295 11.1457 0.727295 24.0003C0.727295 36.8548 11.1455 47.273 24 47.273C36.8546 47.273 47.2728 36.8548 47.2728 24.0003C47.2728 11.1457 36.8546 0.727539 24 0.727539ZM24 44.7518C11.9709 44.7518 3.24851 36.0294 3.24851 24.0003C3.24851 11.9712 11.9709 3.24875 24 3.24875C36.0291 3.24875 44.7515 11.9712 44.7515 24.0003C44.7515 36.0294 36.0291 44.7518 24 44.7518Z" fill="#2A3647"/>
</g>
<defs>
<clipPath id="clip0_343_7757">
<rect width="48" height="48" fill="white"/>
</clipPath>
</defs>
</svg>
