<svg width="24" height="20" viewBox="0 0 24 20" fill="none" xmlns="http://www.w3.org/2000/svg">
<path d="M18.824 11.1521L1.33339 11.1521C0.597009 11.1521 5.38568e-05 10.5552 5.38568e-05 9.81879C5.38568e-05 9.08241 0.597007 8.48545 1.33339 8.48545L18.824 8.48545L12.6146 2.27612C12.094 1.7555 12.094 0.911407 12.6146 0.390786C13.1353 -0.129834 13.9794 -0.129834 14.5 0.390786L22.5138 8.40457C23.2948 9.18562 23.2948 10.452 22.5138 11.233L14.5 19.2468C13.9794 19.7674 13.1353 19.7674 12.6146 19.2468C12.094 18.7262 12.094 17.8821 12.6146 17.3615L18.824 11.1521Z" fill="white"/>
</svg>
